<svg xmlns="http://www.w3.org/2000/svg" viewBox="0 0 304.938 121.532">
    <defs>
        <style>
            .cls-1 {
                fill: #fff5e0;
                fill-rule: evenodd;
            }

        </style>
    </defs>
    <path id="HAIR_SALON" data-name="HAIR SALON" class="cls-1" d="M180.544,272.864q-5.406-.352-8.042-3.187t-5.493-9.689l-27.378-65.435h-2.022l-27.685,64.731q-4.088,9.494-6.262,11.141A15.684,15.684,0,0,1,97,272.864v2.153h24.785v-2.153q-9.1-.66-9.1-4.922a19.212,19.212,0,0,1,1.934-6.856l5.361-12.392h30.454l4.747,11.294q2.328,5.536,2.329,8.085,0,4.395-8,4.791v2.153h31.025v-2.153Zm-58.755-28.477,13.667-31.773,13.359,31.773H121.789Zm110.874-22.5H188.147L187.8,236.609h2.285q0.351-5.844,2.593-8.262t9.448-2.417h17.4l-35.288,46.977v2.11h46.89l0.615-16.3h-1.977q-0.617,9.448-4.461,10.943a24.339,24.339,0,0,1-8.855,1.494h-19.38l35.6-47.11v-2.153Zm54.448,42.231q-4.614,4.615-6.328,4.615-1.758,0-2.285-2.483a56.785,56.785,0,0,1-.527-9.69V238.542q0-7.338-1.121-10.635t-5.383-5.449q-4.263-2.153-11.162-2.153a25.224,25.224,0,0,0-13.579,3.625q-5.845,3.625-5.845,9.734,0,5.627,4.834,5.625,4.965,0,4.966-5.581l-0.132-3.34a5.744,5.744,0,0,1,2.307-4.636,8.754,8.754,0,0,1,5.691-1.868q9.888,0,9.888,13.843v2.11q-13.493,4.878-20.149,9.074t-8.064,7.361A15.176,15.176,0,0,0,242,271.941q3.186,4.175,9.471,4.174a13.922,13.922,0,0,0,6.877-1.538,104.316,104.316,0,0,0,10.086-7.207q0.087,8.7,6.24,8.7,5.932,0,12.436-8.7v-3.252Zm-30.278,5.274a7.074,7.074,0,0,1-6.042-3.054,11.023,11.023,0,0,1-2.22-6.614,11.474,11.474,0,0,1,3.384-7.735q3.384-3.734,16.48-8.657v20.259q-7.209,5.8-11.6,5.8h0Zm57.393-41.265q0.57,0,3.735,2.022,3.207,1.977,4.57,1.977,5.1,0,5.1-5.361a5.564,5.564,0,0,0-2.329-4.746,8.29,8.29,0,0,0-5.01-1.714q-7.032,0-13.711,11.953V220.305h-2.417l-16.084,6.5,0.571,2.109a11.556,11.556,0,0,1,4.087-.879q2.726,0,3.494,2.923T297,242.453v20.611a24.844,24.844,0,0,1-.5,6.372,4.545,4.545,0,0,1-2.505,2.483,12.152,12.152,0,0,1-5.34.988v2.11h27.2v-2.11q-5.759,0-7.515-2.57t-1.758-7.713V237.136q4.658-9.007,7.647-9.009h0Zm29.882-35.6q-5.932,0-5.932,5.845,0,5.932,5.932,5.933,5.844,0,5.845-5.933,0-5.844-5.845-5.845h0Zm12.876,80.376q-4.834,0-6.438-1.955t-1.6-7.932V220.305h-2.548l-16.04,6.5,0.835,2.109a11.224,11.224,0,0,1,3.911-.879,3.24,3.24,0,0,1,3.537,2.637q0.637,2.637.637,11.865V263.02q0,6.021-1.6,7.954t-6.481,1.933v2.11h25.795v-2.11Zm12.92,1.407a12.524,12.524,0,0,1,3.164.571,40.914,40.914,0,0,0,11.119,1.758,18.146,18.146,0,0,0,12.568-4.658,14.82,14.82,0,0,0,5.185-11.47q0-9.492-11.777-15.161l-8.481-4.087q-9.141-4.394-9.141-10.635a5.693,5.693,0,0,1,2.878-5.1,11.435,11.435,0,0,1,6.175-1.8q10.633,0,14.414,14.677h1.933v-18.1h-1.933q-1.1,2.2-2.637,2.2a16.489,16.489,0,0,1-3.955-.835,28.037,28.037,0,0,0-7.6-1.362,16.229,16.229,0,0,0-11.558,4.285,14.518,14.518,0,0,0-4.57,11.1,13.171,13.171,0,0,0,4.13,9.931,211.025,211.025,0,0,0,18.589,11.031q4.967,3.78,4.966,8.569a6.916,6.916,0,0,1-2.812,5.933,10.3,10.3,0,0,1-6.241,2.065q-13.227,0-16.479-16.348h-1.934v18.941h1.934a2.284,2.284,0,0,1,2.065-1.494h0ZM181.246,313.928H183.3V301.415h-2.052v5.365h-5.888v-5.365h-2.053v12.513h2.053v-5.473h5.888v5.473Zm18.594,0H202L197.517,301.4H195.14l-4.483,12.531H192.8l0.9-2.556h5.239Zm-1.477-4.231h-4.087l2.053-5.816Zm10.978,4.231h2.053V301.415h-2.053v12.513Zm16.8-8.768a2.02,2.02,0,0,1-2.323,2.124h-2.269v-4.195h2.269C225.417,303.089,226.137,303.9,226.137,305.16Zm-6.644-3.745v12.513h2.052v-5h1.567l2.881,5h2.448l-3.1-5.185a3.562,3.562,0,0,0,2.9-3.583c0-2.035-1.458-3.745-4.429-3.745h-4.321Zm35.3,8.966c0-4.573-6.626-2.808-6.626-5.635A1.776,1.776,0,0,1,250.274,303a1.957,1.957,0,0,1,2.106,1.657h2.269c-0.18-2.143-1.873-3.4-4.267-3.4-2.557,0-4.3,1.368-4.3,3.565,0,4.609,6.644,2.647,6.644,5.671,0,1.063-.81,1.837-2.25,1.837a2.008,2.008,0,0,1-2.233-1.855h-2.2c0,2.215,1.927,3.584,4.43,3.584C253.263,314.055,254.793,312.254,254.793,310.381Zm16.272,3.547h2.16L268.742,301.4h-2.377l-4.483,12.531h2.143l0.9-2.556h5.239Zm-1.477-4.231H265.5l2.053-5.816Zm10.978-8.282v12.513h6.284v-1.656h-4.231V301.415h-2.053Zm25.491,6.23a6.392,6.392,0,1,0-6.391,6.41A6.237,6.237,0,0,0,306.057,307.645Zm-10.677,0c0-2.827,1.8-4.592,4.286-4.592s4.285,1.765,4.285,4.592-1.8,4.627-4.285,4.627S295.38,310.471,295.38,307.645ZM321.7,301.4v9.327l-6.176-9.327H313.47v12.531h2.052v-9.344l6.176,9.344h2.053V301.4H321.7Z" transform="translate(-97 -192.531)" />
</svg>
